<svg width="227" height="227" viewBox="0 0 227 227" fill="none" xmlns="http://www.w3.org/2000/svg">
<path d="M113.5 128.25C121.646 128.25 128.25 121.646 128.25 113.5C128.25 105.354 121.646 98.75 113.5 98.75C105.354 98.75 98.75 105.354 98.75 113.5C98.75 121.646 105.354 128.25 113.5 128.25Z" stroke="white" stroke-width="10" stroke-linecap="round" stroke-linejoin="round"/>
<path d="M157.75 106.125C165.896 106.125 172.5 99.5212 172.5 91.375C172.5 83.2288 165.896 76.625 157.75 76.625C149.604 76.625 143 83.2288 143 91.375C143 99.5212 149.604 106.125 157.75 106.125Z" stroke="white" stroke-width="10" stroke-linecap="round" stroke-linejoin="round"/>
<path d="M137.97 51.7786C125.474 46.8282 111.769 45.7884 98.6687 48.7967C85.5684 51.805 73.6901 58.7197 64.6054 68.626C55.5207 78.5323 49.6576 90.9633 47.7918 104.274C45.926 117.586 48.1455 131.149 54.1566 143.172C60.1677 155.194 69.6872 165.108 81.4555 171.602C93.2239 178.096 106.687 180.864 120.062 179.54C133.438 178.216 146.097 172.862 156.364 164.187C166.631 155.512 174.022 143.924 177.559 130.957M172.5 91.375V39.75L187.25 54.5" stroke="white" stroke-width="10" stroke-linecap="round" stroke-linejoin="round"/>
</svg>
